<svg xmlns="http://www.w3.org/2000/svg" viewBox="0 0 720 860" role="img" aria-labelledby="title desc">
  <title id="title">Portrait illustration</title>
  <desc id="desc">Editorial portrait-style illustration for Imane Taghzout.</desc>
  <rect width="720" height="860" fill="#d7dce6"/>
  <rect x="58" y="58" width="604" height="744" fill="#f4f0e7"/>
  <circle cx="360" cy="285" r="132" fill="#171816"/>
  <circle cx="360" cy="306" r="96" fill="#bd6047"/>
  <path d="M198 762c20-148 92-226 162-226s142 78 162 226H198z" fill="#2457d6"/>
  <path d="M255 388c-24-104 18-202 105-202 88 0 131 98 105 202-29-49-67-74-105-74s-76 25-105 74z" fill="#171816"/>
  <g fill="none" stroke="#171816" stroke-width="8" stroke-linecap="round">
    <path d="M323 314h1"/>
    <path d="M396 314h1"/>
    <path d="M326 366c22 18 47 18 69 0"/>
  </g>
  <g font-family="Manrope, Arial, sans-serif" font-weight="800" letter-spacing="8">
    <text x="94" y="108" font-size="22" fill="#2457d6">IMANE TAGHZOUT</text>
    <text x="94" y="782" font-size="16" fill="#171816">DATA SCIENTIST / AI ENGINEER</text>
  </g>
  <rect x="520" y="92" width="76" height="76" fill="none" stroke="#bd6047" stroke-width="8"/>
</svg>
