<svg xmlns="http://www.w3.org/2000/svg" viewBox="0 0 900 620" role="img" aria-labelledby="title desc">
  <title id="title">GEOCARA project visual</title>
  <desc id="desc">Structured content intelligence pipeline from crawl to verified answer material.</desc>
  <rect width="900" height="620" fill="#c9d0dc"/>
  <rect x="48" y="48" width="804" height="524" fill="#f4f0e7"/>
  <g fill="none" stroke="#2457d6" stroke-width="2" opacity=".35">
    <path d="M92 150H810M92 300H810M92 450H810"/>
    <path d="M210 90V530M390 90V530M570 90V530M750 90V530"/>
  </g>
  <g font-family="Manrope, Arial, sans-serif" font-weight="800">
    <text x="92" y="112" font-size="24" fill="#2457d6">GEOCARA</text>
    <text x="92" y="502" font-size="14" fill="#746f64" letter-spacing="5">AUDIT TO PUBLICATION</text>
  </g>
  <g>
    <rect x="96" y="206" width="135" height="92" fill="#171816"/>
    <rect x="286" y="206" width="135" height="92" fill="#2457d6"/>
    <rect x="476" y="206" width="135" height="92" fill="#bd6047"/>
    <rect x="666" y="206" width="135" height="92" fill="#171816"/>
    <g fill="#f4f0e7" font-family="Manrope, Arial, sans-serif" font-size="18" font-weight="800">
      <text x="126" y="259">CRAWL</text>
      <text x="314" y="259">BRIEF</text>
      <text x="506" y="259">CHECK</text>
      <text x="688" y="259">PUBLISH</text>
    </g>
  </g>
  <g fill="none" stroke="#171816" stroke-width="4">
    <path d="M231 252H286"/>
    <path d="M421 252H476"/>
    <path d="M611 252H666"/>
  </g>
  <g fill="#2457d6">
    <rect x="96" y="356" width="62" height="78"/>
    <rect x="176" y="326" width="62" height="108"/>
    <rect x="256" y="286" width="62" height="148"/>
    <rect x="336" y="250" width="62" height="184"/>
  </g>
  <circle cx="720" cy="382" r="82" fill="none" stroke="#bd6047" stroke-width="18"/>
  <circle cx="720" cy="382" r="42" fill="#171816"/>
</svg>
