<svg xmlns="http://www.w3.org/2000/svg" viewBox="0 0 900 620" role="img" aria-labelledby="title desc">
  <title id="title">Enterprise RAG project visual</title>
  <desc id="desc">Hybrid retrieval map connecting documents, embeddings, reranking, and answers.</desc>
  <rect width="900" height="620" fill="#dce0e3"/>
  <rect x="70" y="68" width="760" height="484" rx="4" fill="#171816"/>
  <g fill="none" stroke="#7f9cff" stroke-width="2" opacity=".28">
    <path d="M110 162H790M110 274H790M110 386H790M110 498H790"/>
    <path d="M190 110V520M330 110V520M470 110V520M610 110V520M750 110V520"/>
  </g>
  <g fill="#f4f0e7">
    <rect x="126" y="136" width="170" height="94"/>
    <rect x="126" y="272" width="170" height="94"/>
    <rect x="126" y="408" width="170" height="94"/>
  </g>
  <g fill="#2457d6">
    <circle cx="470" cy="182" r="42"/>
    <circle cx="470" cy="318" r="42"/>
    <circle cx="470" cy="454" r="42"/>
  </g>
  <g fill="#bd6047">
    <rect x="635" y="226" width="130" height="184"/>
  </g>
  <g fill="none" stroke="#f4f0e7" stroke-width="5">
    <path d="M296 183H428M296 319H428M296 455H428"/>
    <path d="M512 183C592 198 616 234 635 274"/>
    <path d="M512 318H635"/>
    <path d="M512 454C592 438 616 402 635 362"/>
  </g>
  <g font-family="Manrope, Arial, sans-serif" font-weight="800" letter-spacing="5">
    <text x="126" y="106" font-size="22" fill="#f4f0e7">HYBRID RETRIEVAL</text>
    <text x="655" y="328" font-size="18" fill="#f4f0e7">ANSWER</text>
    <text x="126" y="535" font-size="15" fill="#7f9cff">BM25 + EMBEDDINGS + RERANKING</text>
  </g>
</svg>
